<?xml version="1.0" encoding="UTF-8"?>
<svg id="OAK_2" xmlns="http://www.w3.org/2000/svg" width="64" height="64" viewBox="0 0 64 64">
  <defs>
    <style>
      .cls-1 {
        fill: #f5ee19;
      }

      .cls-2 {
        stroke: #f5ee19;
        stroke-miterlimit: 10;
      }
    </style>
  </defs>
  <rect class="cls-2" x="2.65" y="2" width="58.7" height="60"/>
  <g id="Steam">
    <path class="cls-1" d="M31.96,7.87c-12.68,0-23.07,9.78-24.05,22.19l12.93,5.35c1.13-.77,2.47-1.19,3.84-1.19.13,0,.25,0,.38,0l5.75-8.34v-.12c0-5.03,4.07-9.1,9.1-9.1s9.1,4.07,9.1,9.1-4.07,9.1-9.1,9.1h-.2l-8.2,5.85c0,.11,0,.21,0,.33,0,3.77-3.06,6.83-6.83,6.83-3.25,0-6.05-2.3-6.7-5.48l-9.25-3.83c2.87,10.13,12.17,17.56,23.22,17.56,13.33,0,24.13-10.8,24.13-24.13S45.29,7.87,31.96,7.87Z"/>
    <path class="cls-1" d="M23.03,44.48l-2.96-1.23c1.23,2.55,4.29,3.63,6.83,2.4,2.55-1.23,3.63-4.29,2.4-6.83-1.15-2.4-3.95-3.52-6.44-2.58l3.06,1.26c1.92.82,2.81,3.03,2,4.95-.79,1.9-2.98,2.8-4.89,2.02Z"/>
    <path class="cls-1" d="M45.98,25.78c0-3.35-2.71-6.06-6.06-6.06s-6.06,2.71-6.06,6.06,2.71,6.06,6.06,6.06c3.36,0,6.06-2.72,6.06-6.06ZM35.38,25.77c0-2.52,2.04-4.56,4.56-4.56s4.56,2.04,4.56,4.56-2.04,4.56-4.56,4.56c-2.51,0-4.56-2.05-4.56-4.56Z"/>
  </g>
</svg>