<?xml version="1.0" encoding="UTF-8"?>
<svg id="OAK_2" xmlns="http://www.w3.org/2000/svg" width="64" height="64" viewBox="0 0 64 64">
  <defs>
    <style>
      .cls-1 {
        fill: #f5ee19;
        fill-rule: evenodd;
      }

      .cls-2 {
        stroke: #f5ee19;
        stroke-miterlimit: 10;
      }
    </style>
  </defs>
  <rect class="cls-2" x="2.65" y="2" width="58.7" height="60"/>
  <g id="Epic_black">
    <path class="cls-1" d="M29.07,17.23h-1.12v6.61h1.12c.69,0,1.02-.34,1.02-1.06v-4.51c0-.72-.33-1.04-1.02-1.04ZM29.07,17.23h-1.12v6.61h1.12c.69,0,1.02-.34,1.02-1.06v-4.51c0-.72-.33-1.04-1.02-1.04ZM29.07,17.23h-1.12v6.61h1.12c.69,0,1.02-.34,1.02-1.06v-4.51c0-.72-.33-1.04-1.02-1.04ZM29.07,17.23h-1.12v6.61h1.12c.69,0,1.02-.34,1.02-1.06v-4.51c0-.72-.33-1.04-1.02-1.04ZM29.07,17.23h-1.12v6.61h1.12c.69,0,1.02-.34,1.02-1.06v-4.51c0-.72-.33-1.04-1.02-1.04ZM29.07,17.23h-1.12v6.61h1.12c.69,0,1.02-.34,1.02-1.06v-4.51c0-.72-.33-1.04-1.02-1.04ZM27.04,40.32l-.03-.07-.03-.08-.03-.07-.05-.13-.03-.08-.03-.07-.03-.07-.04-.07v-.07s-.05-.08-.05-.08v-.07s-.05-.07-.05-.07l-.03-.08-.03-.07-.03-.07-.03-.08-.03-.07-.03-.07-.03-.08-.03-.07-.03-.07-.04.07v.07s-.05.08-.05.08l-.03.07-.03.07-.03.08-.03.07-.04.07v.08s-.05.07-.05.07l-.03.07-.03.08-.03.07-.03.07-.03.07-.03.07-.03.08-.04.07v.07s-.05.07-.05.07l-.03.08-.03.07-.03.07h1.25l-.03-.07ZM29.07,17.23h-1.12v6.61h1.12c.69,0,1.02-.34,1.02-1.06v-4.51c0-.72-.33-1.04-1.02-1.04ZM27.04,40.32l-.03-.07-.03-.08-.03-.07-.05-.13-.03-.08-.03-.07-.03-.07-.04-.07v-.07s-.05-.08-.05-.08v-.07s-.05-.07-.05-.07l-.03-.08-.03-.07-.03-.07-.03-.08-.03-.07-.03-.07-.03-.08-.03-.07-.03-.07-.04.07v.07s-.05.08-.05.08l-.03.07-.03.07-.03.08-.03.07-.04.07v.08s-.05.07-.05.07l-.03.07-.03.08-.03.07-.03.07-.03.07-.03.07-.03.08-.04.07v.07s-.05.07-.05.07l-.03.08-.03.07-.03.07h1.25l-.03-.07ZM29.07,17.23h-1.12v6.61h1.12c.69,0,1.02-.34,1.02-1.06v-4.51c0-.72-.33-1.04-1.02-1.04ZM48.58,8.6H15.42c-2.69,0-3.68.99-3.68,3.67v32.3c0,.3.01.59.04.85.07.57.08,1.15.63,1.79.05.07.61.48.61.48.3.14.5.25.83.39l16.33,6.81c.83.38,1.2.53,1.81.52h.07c.57,0,.94-.16,1.76-.52l16.32-6.81c.34-.14.53-.25.83-.39,0,0,.56-.42.61-.48.55-.64.56-1.21.63-1.79.03-.26.04-.55.04-.85V12.27c0-2.67-.99-3.67-3.68-3.67ZM34.06,14.82h2.75v17.95h-2.75V14.82ZM32.91,39.27l.04-.05.03-.07.05-.07.04-.07.04-.05.03-.08.05-.05.04-.07.04-.07.03-.05.05-.08.04-.05.04-.07.03-.07.05-.07.04-.07.04-.07.03-.05.04-.07.05-.07.04-.05.03-.08.04-.05.05-.07.04-.07.03-.05.04-.08.05-.05.04-.07.03-.07.04-.07.05-.05.04-.08.03-.05h1.53v5.43h-1.43v-3.21l-.04.05-.04.07-.04.07-.04.07-.04.07-.05.05-.03.07-.04.07-.05.07-.04.05-.04.07-.04.07-.04.05-.04.07-.04.07-.04.07-.04.05-.05.08-.04.05-.04.07-.04.07-.04.05-.04.07-.04.07-.04.07-.04.05-.05.07-.04.07-.03.07-.05.05-.04.07-.04.07-.04.05-.04.08-.04.05h-.04l-.04-.07-.04-.07-.04-.07-.04-.05-.04-.07-.04-.07-.05-.07-.04-.07-.04-.07-.04-.05-.04-.08-.04-.05-.05-.07-.04-.07-.04-.07-.04-.07-.04-.07-.05-.05-.03-.08-.05-.05-.04-.07-.04-.07-.04-.07-.04-.07-.04-.07-.05-.05-.04-.07-.04-.07-.04-.07-.04-.07-.04-.07-.05-.05-.03-.08-.05-.05v3.2h-1.41v-5.43h1.53l.04.05.03.08.05.05.04.07.04.07.03.07.04.05.05.08.04.05.03.07.04.07.04.05.05.08.03.05.04.07.04.07.05.05.03.07.08.13.04.07.04.07.04.05.04.08.04.05.04.07.04.07.04.05.04.08.04.05.04.07.04.07.04.07.04.05ZM25.19,14.82h4.3c2.23,0,3.34,1.1,3.34,3.33v4.77c0,2.23-1.11,3.33-3.34,3.33h-1.55v6.52h-2.75V14.82ZM17.72,14.82h6.1v2.48h-3.35v5.09h3.22v2.48h-3.22v5.41h3.4v2.49h-6.16V14.82ZM22.91,41.82l-.05.04-.05.05-.05.04-.07.04-.05.04-.07.04-.07.04-.05.04-.07.04-.07.04-.08.04-.07.03-.07.04-.08.03-.07.03-.07.04-.08.03-.07.03h-.07s-.07.04-.07.04l-.08.03-.07.03h-.08s-.13.04-.13.04h-.08s-.08.03-.08.03h-.16s-.08.01-.08.01l-.16.03h-.39s-.09-.03-.09-.03h-.14s-.08-.01-.08-.01h-.07s-.08-.04-.08-.04h-.07s-.08-.03-.08-.03l-.07-.03h-.08s-.07-.03-.07-.03l-.07-.04h-.07s-.08-.05-.08-.05l-.07-.03-.07-.03-.07-.04-.08-.03-.05-.04-.07-.04-.07-.04-.05-.04-.07-.04-.07-.05-.05-.04-.05-.05-.05-.04-.05-.05-.05-.04-.05-.05-.05-.05-.04-.05-.05-.07-.04-.05-.04-.07-.05-.05-.03-.07-.04-.05-.04-.07-.04-.07-.03-.07-.04-.07-.03-.07-.03-.07-.05-.13v-.07s-.04-.07-.04-.07v-.08s-.04-.07-.04-.07v-.08s-.03-.07-.03-.07v-.08s-.01-.07-.01-.07v-.08s-.01-.07-.01-.07v-.08s-.01-.25-.01-.25v-.08s.01-.16.01-.16l.03-.16v-.07l.03-.08v-.07s.03-.08.03-.08l.03-.07.03-.08.03-.07.03-.08.03-.07.03-.07.04-.07.03-.07.04-.07.04-.07.04-.07.03-.05.04-.07.05-.05.04-.07.05-.05.04-.05.05-.05.04-.05.16-.16.07-.05.05-.04.05-.05.07-.03.07-.05.05-.04.07-.04.07-.03.07-.04.07-.04.07-.03.07-.04.08-.04h.07s.07-.04.07-.04l.08-.03h.07s.07-.04.07-.04h.08s.07-.04.07-.04h.07s.08-.03.08-.03h.08s.08-.01.08-.01h.07s.08-.03.08-.03h.56s.08.01.08.01h.07s.08.03.08.03h.14s.08.04.08.04l.13.03h.07s.08.04.08.04h.07s.05.04.05.04h.07s.08.05.08.05l.07.03.07.03.07.04.07.03.07.04.07.04.05.04.08.04.05.04.07.04.05.04.07.05.05.05.07.04-.04.07-.1.1-.05.07-.04.05-.05.05-.05.07-.04.07-.05.05-.05.05-.04.07-.05.05-.04.05-.05.07-.05.05-.04.07-.05.05-.05.07-.05-.05-.07-.05-.05-.04-.13-.08-.05-.04-.07-.04-.07-.04-.05-.03-.07-.03-.07-.03-.07-.03h-.07s-.07-.03-.07-.03l-.08-.03h-.07s-.08-.01-.08-.01h-.08s-.31-.01-.31-.01h-.07s-.08.03-.08.03h-.07s-.07.04-.07.04h-.08s-.07.05-.07.05l-.07.03-.05.04-.07.04-.07.04-.05.04-.05.04-.05.05-.04.05-.05.05-.04.05-.04.05-.04.07-.04.07-.04.07-.03.07-.03.07-.03.07-.03.08v.08s-.03.07-.03.07l-.03.16v.38s.01.08.01.08v.07s.04.07.04.07v.08s.03.07.03.07l.03.05.03.08.04.07.04.07.03.07.04.05.05.07.04.05.1.1.05.04.05.05.07.04.05.04.07.04.13.05.07.04h.08s.08.04.08.04h.07s.08.03.08.03h.08s.08.03.08.03h.26s.08-.03.08-.03h.14s.08-.03.08-.03l.08-.03h.07s.07-.05.07-.05l.05-.03.08-.03.05-.03.05-.04v-.68h-1.08v-1.1h2.45v2.43ZM23.5,42.49l.05-.13.04-.08v-.07s.05-.07.05-.07l.03-.07.03-.07.04-.07.03-.08.03-.07.03-.07.03-.07.03-.08.04-.07.03-.07.03-.08.04-.07.05-.13.03-.07.03-.08.03-.07.04-.07.05-.13.04-.08.03-.07.03-.07.03-.07.03-.08.03-.07.04-.07.03-.08.03-.07.03-.07.03-.07.04-.07.03-.07.03-.08.03-.07.04-.07.03-.07.03-.08.03-.07.03-.07.03-.08.04-.07.03-.07.03-.07.04-.07.03-.07.03-.08.03-.07.03-.07.03-.07.04-.08.05-.13.04-.08v-.07s.05-.07.05-.07l.03-.07.03-.07.03-.08.04-.07.03-.07.03-.07.03-.07.03-.07.04-.08.03-.07.03-.07.03-.08.04-.07.03-.07.03-.08.03-.07.03-.07.04-.07h1.37l.04.07.03.07.03.07.03.08.03.07.03.07.04.08.03.07.03.07.03.08.04.07.03.07.03.07.03.07.03.07.04.08.03.07.05.13.04.07v.08s.05.07.05.07l.03.07.03.08.04.07.03.07.03.07.03.08.03.07.03.07.04.07.03.07.03.07.04.08.05.13.03.08.03.07.03.07.04.07.03.08.03.07.04.07.03.07.03.07.03.07.03.08.03.07.04.07.03.08.03.07.04.07v.07s.05.08.05.08l.05.13.03.07.04.07.03.08.03.07.05.13.04.07.03.08.03.07.03.07.04.08.03.07.03.07.03.07.03.08.04.07.03.07.03.07.03.07.04.07v.08s.05.07.05.07l.03.07.03.08h-1.53l-.04-.08v-.07s-.05-.07-.05-.07l-.03-.08-.03-.07-.05-.13-.03-.07-.03-.07-.04-.07v-.08s-.05-.07-.05-.07l-.03-.07-.03-.08-.03-.07h-2.14l-.03.07-.03.08-.03.07-.03.07-.03.08-.03.07-.04.07v.07s-.05.07-.05.07l-.03.07-.03.07-.03.08-.03.07-.03.07-.03.08h-1.5l.03-.08ZM31.87,51.62l-7.68-2.63h15.69l-8.01,2.63ZM41.21,42.57h-4.34v-5.43h4.3v1.23h-2.88v.89h2.6v1.16h-2.6v.91h2.92v1.24ZM38.26,29.59v-11.6c0-2.23,1.1-3.33,3.33-3.33h1.33c2.23,0,3.31,1.08,3.31,3.31v3.67h-2.7v-3.52c0-.72-.33-1.04-1.02-1.04h-.47c-.72,0-1.04.33-1.04,1.04v11.33c0,.72.33,1.06,1.04,1.06h.52c.69,0,1.02-.34,1.02-1.06v-4.06h2.7v4.19c0,2.23-1.11,3.33-3.34,3.33h-1.36c-2.23,0-3.33-1.1-3.33-3.33ZM46.36,40.99v.08s-.01.08-.01.08l-.03.16-.03.08v.07s-.03.08-.03.08l-.04.07-.03.05-.03.07-.04.07-.04.07-.04.05-.04.07-.05.05-.05.05-.04.04-.07.05-.05.05-.05.04-.07.04-.05.04-.08.04-.07.03-.07.04-.08.04-.07.03-.08.03h-.08s-.07.04-.07.04h-.07s-.08.03-.08.03h-.07s-.07.04-.07.04h-.14s-.08.01-.08.01h-.08s-.55.01-.55.01h-.08s-.07-.01-.07-.01h-.09s-.07-.03-.07-.03l-.23-.04h-.07s-.08-.03-.08-.03l-.08-.03h-.07s-.08-.04-.08-.04h-.07s-.07-.05-.07-.05h-.08s-.07-.04-.07-.04l-.08-.03-.07-.04-.07-.03-.07-.04-.08-.03-.07-.04-.05-.04-.07-.04-.07-.04-.05-.03-.07-.05-.07-.04-.05-.05-.07-.04-.1-.1.04-.05.05-.05.05-.07.05-.05.04-.05.04-.07.05-.05.05-.05.05-.07.04-.05.05-.07.05-.05.04-.05.05-.07.05-.05.04-.05.05-.07.05.05.08.04.05.05.07.04.07.04.07.04.07.04.07.03.05.04.07.03.08.04.07.03.07.03.07.03.08.03h.07s.08.04.08.04h.07s.08.03.08.03l.08.03h.16s.07.01.07.01h.09s.16.01.16.01h.09s.13-.04.13-.04h.08s.05-.04.05-.04l.05-.03.07-.05.04-.05.03-.05.03-.07v-.08s.01-.01.01-.01v-.09s-.04-.08-.04-.08l-.04-.05-.05-.04-.07-.05-.05-.03-.07-.03-.08-.03-.09-.04h-.05s-.05-.03-.05-.03l-.08-.03h-.07s-.07-.04-.07-.04h-.08s-.08-.04-.08-.04h-.08s-.08-.04-.08-.04h-.08s-.08-.04-.08-.04h-.08s-.07-.03-.07-.03l-.07-.03h-.08s-.07-.04-.07-.04l-.07-.03h-.08s-.08-.05-.08-.05l-.08-.03-.07-.03-.08-.04-.07-.03-.08-.04-.05-.04-.08-.04-.05-.04-.07-.04-.16-.16-.04-.05-.04-.05-.04-.05-.04-.05-.04-.07-.03-.05-.03-.07-.03-.07v-.07s-.04-.07-.04-.07v-.08s-.01-.07-.01-.07v-.08s-.01-.33-.01-.33v-.07s.01-.08.01-.08v-.07s.04-.07.04-.07v-.07s.03-.08.03-.08l.04-.07.03-.07.03-.07.04-.07.04-.07.04-.07.05-.05.05-.07.16-.16.05-.04.07-.05.05-.04.13-.08.07-.03.07-.04.08-.03.07-.03.08-.03.07-.03h.07s.07-.03.07-.03h.07s.08-.04.08-.04h.07s.08-.01.08-.01h.07s.08-.01.08-.01h.08s.31-.01.31-.01h.09s.16.01.16.01h.08s.08.03.08.03h.08l.08.03.13.03h.08s.07.03.07.03l.08.03.07.03h.07s.08.04.08.04l.13.05.07.03.08.04.07.03.07.04.07.04.07.03.07.04.07.05.05.04.07.04.05.04.07.05-.04.05-.04.07-.05.07-.04.05-.05.07-.03.07-.05.05-.04.07-.04.05-.05.07-.04.07-.04.05-.04.07-.05.07-.04.05-.04.07-.04.07-.07-.05-.07-.04-.07-.04-.05-.04-.07-.03-.07-.04-.07-.03-.07-.04-.07-.03-.05-.03-.13-.05-.08-.03-.08-.03h-.08s-.07-.04-.07-.04h-.08s-.08-.03-.08-.03h-.08l-.13-.03h-.17l-.08.03h-.08s-.07.03-.07.03l-.07.03-.05.03-.07.07-.04.07-.04.07v.2l.04.08.04.04.05.05.07.04.05.04.08.03.08.04.09.03h.07s.05.04.05.04h.07s.08.04.08.04h.07s.09.03.09.03l.08.03.08.03h.08s.08.04.08.04h.08s.08.04.08.04h.08s.08.04.08.04l.07.03h.07s.08.04.08.04l.07.03.08.03.08.04.07.03.08.04.07.04.07.04.07.04.05.04.07.04.07.05.05.05.05.07.1.1.04.07.04.07.04.07.05.13v.07s.04.07.04.07v.08s.03.07.03.07v.16s.01.18.01.18ZM30.08,22.79v-4.51c0-.72-.33-1.04-1.02-1.04h-1.12v6.61h1.12c.69,0,1.02-.34,1.02-1.06ZM27.04,40.32l-.03-.07-.03-.08-.03-.07-.05-.13-.03-.08-.03-.07-.03-.07-.04-.07v-.07s-.05-.08-.05-.08v-.07s-.05-.07-.05-.07l-.03-.08-.03-.07-.03-.07-.03-.08-.03-.07-.03-.07-.03-.08-.03-.07-.03-.07-.04.07v.07s-.05.08-.05.08l-.03.07-.03.07-.03.08-.03.07-.04.07v.08s-.05.07-.05.07l-.03.07-.03.08-.03.07-.03.07-.03.07-.03.07-.03.08-.04.07v.07s-.05.07-.05.07l-.03.08-.03.07-.03.07h1.25l-.03-.07ZM29.07,17.23h-1.12v6.61h1.12c.69,0,1.02-.34,1.02-1.06v-4.51c0-.72-.33-1.04-1.02-1.04ZM29.07,17.23h-1.12v6.61h1.12c.69,0,1.02-.34,1.02-1.06v-4.51c0-.72-.33-1.04-1.02-1.04ZM29.07,17.23h-1.12v6.61h1.12c.69,0,1.02-.34,1.02-1.06v-4.51c0-.72-.33-1.04-1.02-1.04ZM29.07,17.23h-1.12v6.61h1.12c.69,0,1.02-.34,1.02-1.06v-4.51c0-.72-.33-1.04-1.02-1.04ZM29.07,17.23h-1.12v6.61h1.12c.69,0,1.02-.34,1.02-1.06v-4.51c0-.72-.33-1.04-1.02-1.04ZM29.07,17.23h-1.12v6.61h1.12c.69,0,1.02-.34,1.02-1.06v-4.51c0-.72-.33-1.04-1.02-1.04ZM29.07,17.23h-1.12v6.61h1.12c.69,0,1.02-.34,1.02-1.06v-4.51c0-.72-.33-1.04-1.02-1.04ZM29.07,17.23h-1.12v6.61h1.12c.69,0,1.02-.34,1.02-1.06v-4.51c0-.72-.33-1.04-1.02-1.04Z"/>
  </g>
</svg>