<?xml version="1.0" encoding="UTF-8"?>
<svg id="OAK_2" xmlns="http://www.w3.org/2000/svg" width="64" height="64" viewBox="0 0 64 64">
  <defs>
    <style>
      .cls-1 {
        fill: #f5ee19;
        fill-rule: evenodd;
      }

      .cls-2 {
        stroke: #f5ee19;
        stroke-miterlimit: 10;
      }
    </style>
  </defs>
  <rect class="cls-2" x="2.65" y="2" width="58.7" height="60"/>
  <path id="Playstation" class="cls-1" d="M58.56,43.08c-1.06,1.33-3.64,2.28-3.64,2.28l-19.25,6.92v-5.1l14.17-5.05c1.61-.58,1.85-1.39.55-1.82-1.3-.43-3.67-.31-5.28.27l-9.44,3.33v-5.29l.54-.18s2.73-.97,6.56-1.39c3.84-.42,8.53.06,12.22,1.46,4.16,1.31,4.62,3.25,3.57,4.58ZM37.49,34.39v-13.04c0-1.53-.28-2.94-1.72-3.34-1.1-.35-1.78.67-1.78,2.2v32.66l-8.81-2.8V11.13c3.75.7,9.2,2.34,12.13,3.33,7.46,2.56,9.99,5.75,9.99,12.93s-4.32,9.65-9.81,7ZM9.02,46.64c-4.27-1.2-4.98-3.7-3.03-5.15,1.8-1.33,4.85-2.33,4.85-2.33l12.63-4.49v5.12l-9.09,3.25c-1.61.58-1.85,1.39-.55,1.82,1.31.43,3.67.31,5.28-.27l4.36-1.58v4.58c-.28.05-.58.1-.87.15-4.36.71-9,.42-13.58-1.09h0ZM55.75,48.67c.55,0,1.07.21,1.46.61.39.39.6.91.6,1.46s-.21,1.07-.6,1.46c-.39.39-.91.61-1.46.61s-1.07-.21-1.46-.61c-.39-.39-.6-.9-.6-1.46,0-1.14.92-2.06,2.06-2.06ZM54.04,50.73c0,.46.18.89.5,1.21.32.33.76.5,1.21.5.95,0,1.71-.77,1.71-1.71,0-.46-.18-.89-.5-1.21-.32-.33-.76-.5-1.21-.5s-.89.18-1.21.5c-.32.32-.5.75-.5,1.21ZM56.38,49.62c.23.1.34.29.34.56,0,.14-.03.26-.09.35-.04.07-.1.12-.17.17.05.03.1.07.14.11.05.06.08.17.08.3v.29c.01.08.02.14.03.18.01.05.04.09.07.1h.03v.15h-.44v-.03s-.04-.05-.04-.09c0-.03-.01-.09-.02-.18l-.02-.36c0-.13-.05-.21-.13-.25-.05-.02-.13-.03-.25-.03h-.63v.94h-.4v-2.3h1.07c.17,0,.32.03.43.08h0ZM55.28,50.55h.64c.13,0,.23-.02.3-.07.07-.05.1-.14.1-.26,0-.14-.05-.23-.14-.28-.05-.03-.13-.04-.22-.04h-.68v.65h0Z"/>
</svg>